<svg width="180" height="52" viewBox="0 0 180 52" fill="none" xmlns="http://www.w3.org/2000/svg">
<g clip-path="url(#clip0_20_798)">
<path d="M179 46.003C179 48.7741 176.709 51.0188 173.874 51.0188H6.13243C3.2995 51.0188 1 48.7741 1 46.003V6.00345C1 3.23362 3.2995 0.981079 6.13243 0.981079H173.873C176.709 0.981079 178.999 3.23362 178.999 6.00345L179 46.003Z" fill="black"/>
<path d="M173.333 1.04162C176.42 1.04162 178.932 3.4905 178.932 6.5V45.5C178.932 48.5095 176.42 50.9584 173.333 50.9584H6.66667C3.58 50.9584 1.06833 48.5095 1.06833 45.5V6.5C1.06833 3.4905 3.58 1.04162 6.66667 1.04162H173.333ZM173.333 2.74817e-06H6.66667C3.00167 2.74817e-06 0 2.92663 0 6.5V45.5C0 49.0734 3.00167 52 6.66667 52H173.333C176.998 52 180 49.0734 180 45.5V6.5C180 2.92663 176.998 2.74817e-06 173.333 2.74817e-06Z" fill="#A6A6A6"/>
<path d="M34.0559 17.2433C35.1756 16.8312 36.3761 16.4844 37.5667 16.6066L37.5842 16.6085L37.6028 16.6095C38.5848 16.6374 41.252 16.9734 43.1282 19.2697C42.1141 19.9863 39.8254 21.9612 39.678 25.3097L39.6711 25.7238C39.6946 28.4014 40.9016 30.1959 42.1067 31.3126C42.8754 32.025 43.6464 32.4645 44.1174 32.6945C44.1152 32.7009 44.1139 32.7083 44.1116 32.715C44.0224 32.9705 43.8881 33.3271 43.7034 33.7511C43.3333 34.6007 42.7637 35.7154 41.9534 36.8361L41.9465 36.8468C41.2447 37.8699 40.559 38.8296 39.7766 39.5421C39.0049 40.2449 38.1693 40.6787 37.1643 40.6945H37.1604C36.1472 40.7171 35.4799 40.434 34.6838 40.1036C33.8733 39.7673 32.9602 39.3986 31.5627 39.3986C30.1602 39.3986 29.2334 39.7411 28.4104 40.0763C27.6984 40.3663 27.1014 40.6308 26.3059 40.7189L25.9524 40.7452C25.0328 40.7776 24.1795 40.3301 23.345 39.5665C22.7174 38.9923 22.1345 38.2712 21.5754 37.5187L21.0237 36.7599C19.6186 34.7575 18.3615 31.9228 17.8274 28.9708C17.2924 26.0134 17.4934 23.0002 18.9211 20.59L18.9221 20.587C20.3017 18.2301 22.814 16.7201 25.4846 16.6798H25.675C26.6126 16.701 27.5371 17.013 28.4368 17.3595C28.9024 17.5389 29.3786 17.735 29.8118 17.88C30.245 18.025 30.6913 18.1397 31.1145 18.1398C31.5413 18.1398 32.0215 17.9995 32.4915 17.8341C32.9514 17.6722 33.5272 17.4379 34.0559 17.2433ZM37.178 8.63293C37.2103 10.2549 36.524 11.8488 35.5266 13.0695C34.4784 14.2753 32.8773 15.1855 31.3127 15.2355C31.27 13.6602 32.0782 12.0025 33.011 10.9396V10.9386C34.0279 9.77512 35.7297 8.85814 37.178 8.63293Z" fill="white" stroke="white"/>
<path d="M65.4255 24.1547L70.8347 40.4554H68.8621L67.3152 35.7181L67.2029 35.3734H60.7068L60.5974 35.725L59.1267 40.4554H57.238L62.6199 24.1547H65.4255ZM63.405 25.849C63.2325 26.576 62.9535 27.6545 62.5681 29.0863L61.1003 33.5863L60.8875 34.2416H67.033L66.8142 33.5834L65.3142 29.0668L65.3132 29.0609L65.1736 28.6146C65.0072 28.0497 64.7597 27.1283 64.4294 25.8402L64.3337 25.4652H63.4968L63.405 25.849Z" fill="white" stroke="white"/>
<path d="M80.924 28.7242C82.2001 28.7242 83.2673 29.1773 84.1495 30.1041L84.3234 30.2965C85.2378 31.3504 85.7159 32.7561 85.7159 34.5641C85.7159 36.5903 85.1565 38.1322 84.09 39.2487C83.1342 40.2424 81.9584 40.7369 80.5294 40.7369C78.9745 40.7369 77.9461 40.2033 77.3204 39.2018L77.173 38.9664H76.3429V45.5377H74.5001V32.5875C74.5001 31.4115 74.4699 30.2088 74.4161 28.9801H75.9337L76.0548 30.4977L76.0919 30.9576H76.881L77.0284 30.7262C77.8748 29.3961 79.145 28.7243 80.924 28.7242ZM80.0031 29.9303C79.1835 29.9303 78.4376 30.2008 77.7843 30.7184L77.7833 30.7194C77.205 31.1805 76.8009 31.7682 76.5753 32.4713L76.4913 32.7711C76.3985 33.1332 76.3439 33.4596 76.3439 33.7399V35.8199C76.3439 36.8423 76.6693 37.7314 77.3302 38.4557C78.0037 39.1937 78.8839 39.5563 79.924 39.5563C81.1404 39.5563 82.1278 39.0873 82.8253 38.1471C83.5041 37.2326 83.8204 36.0574 83.8204 34.6656C83.8204 33.3745 83.5212 32.264 82.8839 31.3717L82.8781 31.3629L82.7413 31.191C82.0449 30.3559 81.1191 29.9304 80.0031 29.9303Z" fill="white" stroke="white"/>
<path d="M95.6412 28.7242C97.0003 28.7242 98.1239 29.2389 99.0416 30.2946V30.2955C99.9529 31.3499 100.432 32.7563 100.432 34.5641C100.432 36.5898 99.8734 38.1313 98.8063 39.2477C97.8518 40.242 96.6753 40.7368 95.2457 40.7369C93.6906 40.7369 92.662 40.2031 92.0377 39.2018L91.8903 38.9664H91.0602V45.5377H89.2174V32.5875C89.2174 31.4115 89.1872 30.2088 89.1334 28.9801H90.651L90.7721 30.4977L90.8092 30.9576H91.5983L91.7457 30.7262C92.5907 29.3965 93.8608 28.7243 95.6412 28.7242ZM94.7184 29.9303C93.8974 29.9303 93.1538 30.2013 92.4996 30.7184L92.4977 30.7194C91.8381 31.2453 91.4078 31.9357 91.2076 32.7731C91.117 33.1321 91.0602 33.4587 91.0602 33.7399V35.8199C91.0602 36.8423 91.3859 37.7307 92.0436 38.4547L92.0446 38.4557C92.7178 39.1918 93.5973 39.5563 94.6403 39.5563C95.8566 39.5562 96.8442 39.0873 97.5416 38.1471C98.2203 37.2327 98.5358 36.0573 98.5358 34.6656C98.5358 33.374 98.2363 32.2637 97.5992 31.3717L97.5924 31.3629L97.4557 31.191C96.7597 30.3561 95.8361 29.9303 94.7184 29.9303Z" fill="white" stroke="white"/>
<path d="M112.674 23.9012C114.04 23.9012 115.173 24.1038 116.092 24.4901L115.685 25.786C114.745 25.386 113.714 25.1865 112.595 25.1864C111.585 25.1864 110.721 25.4147 110.058 25.9208L109.928 26.0253L109.918 26.035C109.345 26.5535 109.042 27.2077 109.042 27.9725C109.042 28.8049 109.38 29.5069 110.03 30.0428V30.0438C110.573 30.5153 111.503 30.9839 112.756 31.4657V31.4667C114.151 32.0144 115.155 32.6324 115.81 33.3036L115.936 33.4384C116.562 34.1365 116.885 35.0152 116.885 36.1034C116.885 37.4396 116.417 38.4966 115.48 39.3202C114.442 40.2265 112.965 40.7108 110.976 40.7108C109.307 40.7108 107.982 40.4269 106.965 39.8925L107.346 38.5585C108.519 39.1376 109.787 39.4285 111.145 39.4286C112.212 39.4286 113.121 39.2078 113.82 38.7167L113.957 38.6141C114.679 38.0441 115.041 37.2642 115.041 36.3309C115.041 35.602 114.814 34.9584 114.361 34.4227L114.153 34.2001C113.586 33.6455 112.689 33.17 111.526 32.7499H111.527C108.498 31.6485 107.198 30.1214 107.198 28.2596C107.198 26.985 107.676 25.9592 108.651 25.1473H108.652C109.624 24.3331 110.947 23.9013 112.674 23.9012Z" fill="white" stroke="white"/>
<path d="M123.15 28.9775H126.284V30.0605H123.15V36.6172C123.15 37.432 123.294 38.1333 123.659 38.6416C124.046 39.1805 124.626 39.4268 125.309 39.4268C125.589 39.4268 125.851 39.4129 126.093 39.3867L126.137 40.5352C125.693 40.6464 125.131 40.7099 124.44 40.71C123.423 40.71 122.688 40.4107 122.169 39.8643C121.671 39.3353 121.358 38.3744 121.358 36.8457V30.0576H119.492V28.9775H121.358V26.5674L123.15 26.04V28.9775Z" fill="white" stroke="white"/>
<path d="M134.758 28.7256C136.517 28.7256 137.889 29.2887 138.922 30.3896C139.912 31.4611 140.422 32.8547 140.422 34.6152C140.421 36.4261 139.894 37.8732 138.87 38.998C137.8 40.15 136.376 40.7373 134.547 40.7373C132.789 40.7372 131.436 40.1743 130.429 39.0781C129.41 37.9677 128.889 36.5606 128.889 34.8223C128.889 32.9956 129.427 31.5404 130.478 30.416L130.479 30.415C131.517 29.3005 132.925 28.7256 134.758 28.7256ZM134.657 29.752C133.337 29.7521 132.31 30.3436 131.626 31.4814C131.056 32.4014 130.788 33.4999 130.788 34.7568C130.788 35.9814 131.057 37.0639 131.626 37.9795V37.9785C132.325 39.1113 133.339 39.7079 134.631 39.708C135.908 39.708 136.913 39.0953 137.608 37.9541C138.189 37.0244 138.472 35.9326 138.472 34.7051C138.472 33.5569 138.235 32.534 137.737 31.6553L137.634 31.4814C136.953 30.3477 135.944 29.752 134.657 29.752Z" fill="white" stroke="white"/>
<path d="M149.451 28.7242C149.524 28.7242 149.594 28.7281 149.662 28.7311V30.3551C149.532 30.3464 149.399 30.3414 149.265 30.3414C148.124 30.3415 147.194 30.7709 146.545 31.649L146.543 31.652C145.995 32.4056 145.737 33.3371 145.737 34.4098V40.4547H143.898L143.922 32.4108V32.4088C143.922 31.174 143.894 30.0317 143.842 28.9821H145.313L145.396 30.8903L145.418 31.3688H146.324L146.444 31.0406C146.712 30.3064 147.128 29.7285 147.69 29.2965C148.242 28.9099 148.824 28.7242 149.451 28.7242Z" fill="white" stroke="white"/>
<path d="M157.559 28.7008C159.158 28.7008 160.342 29.2341 161.177 30.276L161.339 30.4908C162.019 31.4504 162.375 32.6545 162.375 34.1276C162.375 34.4134 162.361 34.6648 162.339 34.8844H153.729L153.743 35.3981C153.78 36.7427 154.236 37.8354 155.163 38.5963L155.165 38.5983C155.992 39.2668 157.041 39.5817 158.27 39.5817C159.372 39.5816 160.403 39.4356 161.357 39.1422L161.58 40.1071C160.527 40.4891 159.296 40.6861 157.876 40.6862C155.992 40.6862 154.573 40.1489 153.555 39.1266C152.535 38.1006 152.004 36.709 152.004 34.8981C152.004 33.2278 152.44 31.852 153.291 30.7428L153.468 30.524L153.471 30.5201C154.471 29.3119 155.816 28.7008 157.559 28.7008ZM157.347 29.6227C156.259 29.6227 155.357 30.0726 154.687 30.9479C154.152 31.6275 153.84 32.4368 153.745 33.3561L153.689 33.9069H160.164V33.4137L160.664 33.4196V32.9069H160.648C160.593 32.2053 160.393 31.5683 160.032 31.0074C159.437 30.0751 158.511 29.6227 157.347 29.6227Z" fill="white" stroke="white"/>
<path d="M60.6409 9.39978C62.016 9.39978 62.995 9.6745 63.6478 10.1556L63.7747 10.2552C64.5076 10.8734 64.8997 11.7666 64.8997 13.0121C64.8996 14.4338 64.4676 15.4256 63.6722 16.0804C62.922 16.6953 61.8135 17.0385 60.2786 17.0385C59.6972 17.0385 59.1836 17.0188 58.7347 16.9828V9.51306C59.3291 9.43947 59.9631 9.3998 60.6409 9.39978ZM60.7571 9.47205C60.2981 9.47205 59.8895 9.50193 59.5374 9.5697L59.1321 9.64783V16.8461L59.5569 16.9105C59.7717 16.943 60.1237 16.9545 60.5765 16.9545C61.7363 16.9544 62.7047 16.6378 63.4056 15.9388C64.1097 15.2366 64.4271 14.2453 64.4271 13.0492C64.427 11.9669 64.1302 11.0615 63.4691 10.4105V10.4095C62.8068 9.75915 61.8748 9.47205 60.7571 9.47205Z" fill="white" stroke="white"/>
<path d="M69.7299 11.7402C69.1807 11.843 68.7373 12.162 68.4281 12.6738C68.1181 13.1739 67.9789 13.7633 67.9789 14.417C67.9789 15.0578 68.1218 15.6371 68.4281 16.1338V16.1348C68.7823 16.7068 69.2954 17.0425 69.9388 17.0957C69.2066 17.0671 68.6576 16.819 68.2445 16.3682C67.793 15.8752 67.556 15.2478 67.556 14.4492C67.5561 13.6064 67.8026 12.9566 68.2679 12.459C68.6374 12.0639 69.1143 11.8196 69.7299 11.7402ZM70.3578 11.7168C70.9796 11.7464 71.4746 11.9351 71.8695 12.2764L72.0463 12.4473C72.4789 12.9197 72.7123 13.54 72.7123 14.3486C72.7122 15.1859 72.4695 15.831 72.014 16.3311C71.5978 16.7774 71.0613 17.0355 70.3656 17.0898C70.9737 17.0187 71.4589 16.6792 71.7972 16.124L71.7982 16.125C72.1145 15.6211 72.263 15.0365 72.2631 14.3926C72.2631 13.7517 72.1192 13.1716 71.8129 12.6748C71.4744 12.1142 70.9794 11.7807 70.3578 11.7168Z" fill="white" stroke="white"/>
<path d="M81.4345 16.7166L81.3554 16.9626H80.8095L80.7343 16.7166H81.4345ZM75.623 11.8347L76.2411 14.3669V14.3689C76.4106 15.0479 76.5498 15.6941 76.6611 16.3044L76.7363 16.7146H77.4423L77.3613 16.9626H76.8007L75.2529 11.8347H75.623ZM80.1035 14.3416C80.2895 14.9699 80.442 15.5751 80.5634 16.158L80.1035 14.655L80.1025 14.6531C79.901 14.0053 79.7375 13.362 79.6103 12.7244L79.5888 12.6199L80.1035 14.3416ZM83.0009 11.8357L81.6718 15.9763C81.7342 15.614 81.8112 15.2364 81.9052 14.8435L82.0351 14.3269L82.6992 11.8357H83.0009ZM78.3984 13.6736C78.3157 14 78.2219 14.3233 78.1152 14.6433L78.1142 14.6472L77.999 15.0007C78.0526 14.8134 78.1118 14.6158 78.1757 14.408V14.407L78.3984 13.6736ZM79.3554 11.8357L79.5009 12.322H78.8115L78.9599 11.8357H79.3554Z" fill="white" stroke="white"/>
<path d="M88.7437 11.7061C89.2155 11.7061 89.5763 11.8504 89.8618 12.123L89.8638 12.125C90.2138 12.454 90.4312 12.979 90.4312 13.792V16.9629H90.0337V13.9531C90.0337 13.3612 89.92 12.825 89.6108 12.4287C89.2833 12.009 88.8041 11.8302 88.2671 11.8301C88.172 11.8301 88.0791 11.8384 87.9888 11.8506C88.2193 11.7551 88.4701 11.7061 88.7437 11.7061ZM86.1831 11.832L86.2163 12.3242L86.2476 12.79H86.6392C86.4613 13.1018 86.3696 13.4504 86.3696 13.8271V16.9619H85.9722V13.0859C85.9722 12.691 85.9606 12.2733 85.9429 11.832H86.1831Z" fill="white" stroke="white"/>
<path d="M94.2835 9.02283V16.9633H93.888V9.02283H94.2835Z" fill="white" stroke="white"/>
<path d="M99.5275 11.7402C98.9782 11.843 98.535 12.1617 98.2267 12.6738C97.9167 13.1739 97.7775 13.7633 97.7775 14.417C97.7775 15.0578 97.9205 15.6371 98.2267 16.1338V16.1348C98.581 16.7068 99.0941 17.0425 99.7375 17.0957C99.004 17.0672 98.4558 16.8193 98.0441 16.3691L98.0432 16.3682C97.5917 15.8752 97.3547 15.2478 97.3547 14.4492C97.3547 13.6064 97.6012 12.9566 98.0666 12.459C98.4361 12.0639 98.9129 11.8196 99.5275 11.7402ZM100.156 11.7168C100.872 11.751 101.418 11.9977 101.84 12.4424H101.841C102.276 12.9154 102.511 13.5376 102.511 14.3486C102.511 15.1859 102.268 15.831 101.813 16.3311C101.397 16.7772 100.859 17.0354 100.164 17.0898C100.772 17.0187 101.256 16.6792 101.594 16.125L101.595 16.126C101.914 15.6209 102.06 15.0355 102.06 14.3926C102.06 13.7517 101.917 13.1716 101.611 12.6748C101.273 12.1137 100.777 11.7807 100.156 11.7168Z" fill="white" stroke="white"/>
<path d="M106.316 14.2822C106.076 14.4174 105.872 14.5967 105.729 14.8311C105.578 15.0782 105.511 15.3564 105.511 15.6465C105.511 16.0569 105.626 16.4546 105.946 16.7393C106.18 16.9469 106.46 17.0578 106.76 17.0918C106.689 17.0977 106.616 17.1025 106.54 17.1025C106.12 17.1025 105.804 16.9904 105.562 16.7891L105.463 16.6973C105.232 16.4613 105.113 16.1721 105.113 15.7988C105.113 15.2253 105.342 14.8157 105.839 14.5107V14.5098C105.979 14.4236 106.138 14.348 106.316 14.2822ZM108.788 13.3896C108.788 12.8992 108.654 12.4419 108.302 12.1152C108.063 11.8936 107.763 11.7719 107.435 11.7168C108.05 11.7508 108.451 11.9295 108.707 12.1924C108.995 12.4877 109.183 12.9741 109.183 13.7451V16.002C109.183 16.3575 109.194 16.6785 109.215 16.9629H108.95L108.909 16.6846L108.847 16.2568H108.562C108.67 16.0895 108.748 15.9021 108.79 15.6953L108.789 15.6943C108.812 15.5873 108.822 15.473 108.822 15.3574V13.9199L108.788 13.9189V13.3896Z" fill="white" stroke="white"/>
<path d="M114.468 11.7084C114.743 11.7084 114.971 11.7409 115.16 11.8011C115.039 11.7793 114.914 11.7679 114.787 11.7679C114.113 11.768 113.554 12.0395 113.156 12.5756L113.155 12.5775C112.78 13.0865 112.609 13.7141 112.609 14.4252C112.609 15.1089 112.772 15.7148 113.14 16.2015C113.539 16.7318 114.096 17.0052 114.76 17.0052C114.891 17.0052 115.017 16.9917 115.138 16.9701C114.923 17.0538 114.664 17.1019 114.351 17.1019C113.741 17.1019 113.247 16.8763 112.841 16.4056C112.435 15.9349 112.213 15.3065 112.213 14.476C112.213 13.583 112.454 12.9083 112.896 12.4056C113.33 11.9347 113.842 11.7084 114.468 11.7084ZM117.164 9.02283V15.8119C117.164 16.2153 117.174 16.599 117.189 16.9633H116.941L116.907 16.4457L116.875 15.9789H116.487C116.674 15.6482 116.765 15.2777 116.765 14.8783V13.8568C116.765 13.6592 116.75 13.4748 116.713 13.3148L116.712 13.3109C116.643 13.024 116.52 12.7664 116.346 12.5404H116.765V9.02283H117.164Z" fill="white" stroke="white"/>
<path d="M126.181 11.7412C125.633 11.8444 125.19 12.1629 124.88 12.6738C124.57 13.1739 124.431 13.7633 124.431 14.417C124.431 15.0578 124.574 15.6371 124.88 16.1338V16.1348C125.234 16.7065 125.747 17.0422 126.39 17.0957C125.757 17.0707 125.26 16.8817 124.869 16.5371L124.697 16.3682C124.245 15.8752 124.008 15.2478 124.008 14.4492C124.008 13.6064 124.255 12.9566 124.72 12.459C125.089 12.0643 125.565 11.8208 126.181 11.7412ZM126.81 11.7168C127.526 11.7507 128.074 11.9977 128.493 12.4424H128.494C128.929 12.9154 129.164 13.5376 129.164 14.3486C129.164 15.1859 128.922 15.831 128.466 16.3311C128.05 16.7775 127.514 17.0355 126.818 17.0898C127.426 17.0187 127.913 16.6792 128.251 16.123L128.252 16.124C128.566 15.6213 128.716 15.0374 128.716 14.3926C128.716 13.7517 128.573 13.1716 128.267 12.6748C127.927 12.1144 127.433 11.7806 126.81 11.7168Z" fill="white" stroke="white"/>
<path d="M134.992 11.7061C135.462 11.7061 135.822 11.8503 136.108 12.123L136.112 12.126C136.462 12.4545 136.677 12.9785 136.677 13.792V16.9629H136.282V13.9531C136.282 13.3613 136.168 12.825 135.859 12.4287C135.531 12.0088 135.051 11.8301 134.513 11.8301C134.419 11.8301 134.327 11.8385 134.237 11.8506C134.468 11.7552 134.718 11.7061 134.992 11.7061ZM132.429 11.832L132.462 12.3242L132.495 12.79H132.886C132.708 13.1024 132.618 13.4513 132.618 13.8271V16.9619H132.219V13.0859C132.219 12.6913 132.207 12.2737 132.19 11.832H132.429Z" fill="white" stroke="white"/>
<path d="M144.541 11.833H146.08V11.8555H144.542V15.332C144.542 15.7557 144.617 16.1634 144.841 16.4756C145.087 16.8177 145.456 16.9667 145.857 16.9668C145.905 16.9668 145.952 16.9653 145.998 16.9639L146.001 17.0488C145.843 17.0731 145.654 17.0889 145.431 17.0889C144.984 17.0889 144.698 16.9607 144.501 16.7539L144.5 16.7529L144.435 16.6729C144.287 16.4629 144.172 16.0845 144.172 15.4453V11.8555H143.253V11.835H144.172V10.585L144.541 10.4766V11.833Z" fill="white" stroke="white"/>
<path d="M151.831 11.7084C152.292 11.7084 152.642 11.8508 152.919 12.1215C153.265 12.4581 153.479 12.9948 153.479 13.8187V16.9633H153.08V13.9789C153.08 13.3799 152.967 12.8389 152.661 12.4388C152.334 12.0137 151.855 11.8305 151.315 11.8304C151.248 11.8304 151.183 11.8337 151.118 11.8392C151.328 11.753 151.564 11.7084 151.831 11.7084ZM149.417 9.02283V12.7162H149.704C149.63 12.838 149.567 12.969 149.514 13.1078L149.508 13.1234L149.503 13.139C149.445 13.329 149.417 13.5435 149.417 13.7758V16.9613H149.02V9.02283H149.417Z" fill="white" stroke="white"/>
<path d="M157.825 11.9688C157.665 12.0809 157.518 12.22 157.389 12.3877C157.092 12.7643 156.924 13.208 156.87 13.7021L156.808 14.2568H156.852L156.867 14.7422C156.889 15.4573 157.132 16.068 157.655 16.499L157.659 16.5029C158.122 16.8759 158.698 17.043 159.346 17.043C159.727 17.043 160.093 17.0065 160.444 16.9375C160.061 17.0282 159.631 17.0771 159.149 17.0771C158.275 17.0771 157.649 16.8294 157.21 16.3867L157.209 16.3857L157.052 16.21C156.707 15.7818 156.521 15.2209 156.521 14.4883C156.521 13.6625 156.749 13.0132 157.18 12.5039L157.182 12.499C157.368 12.2745 157.582 12.0995 157.825 11.9688ZM159.617 11.7715C160.058 11.8816 160.391 12.116 160.641 12.4697L160.643 12.4736C160.945 12.8922 161.109 13.4279 161.109 14.1094C161.109 14.1501 161.105 14.1891 161.104 14.2266H160.764L160.776 13.7695C160.788 13.3397 160.703 12.9412 160.514 12.5879L160.426 12.4395C160.219 12.118 159.943 11.8981 159.617 11.7715Z" fill="white" stroke="white"/>
</g>
<defs>
<clipPath id="clip0_20_798">
<rect width="180" height="52" fill="white"/>
</clipPath>
</defs>
</svg>
