<svg width="200" height="66" viewBox="0 0 200 66" fill="none" xmlns="http://www.w3.org/2000/svg">
<rect width="65.6141" height="65.6141" rx="11.2234" fill="black"/>
<circle cx="48.2223" cy="33.1707" r="6.51588" transform="rotate(-90 48.2223 33.1707)" fill="#FF86B7"/>
<path d="M45.5952 47.4309C45.7015 47.3245 45.8065 47.2173 45.91 47.1091L38.4926 39.6917C38.4655 39.7195 38.4382 39.7471 38.4108 39.7746C35.1614 43.024 30.1307 43.4064 26.462 40.922L18.5274 48.8567C26.4835 55.3097 38.1917 54.8344 45.5952 47.4309Z" fill="#B868D9"/>
<path d="M17.2122 47.6927C17.1227 47.6064 17.0339 47.5191 16.9457 47.4309C9.03431 39.5196 9.03431 26.6927 16.9457 18.7814C24.857 10.8701 37.6838 10.8701 45.5952 18.7814C45.6834 18.8696 45.7707 18.9585 45.8569 19.048L38.4389 26.466C38.4295 26.4566 38.4202 26.4472 38.4108 26.4377C34.7279 22.7549 28.7568 22.7549 25.0739 26.4377C21.391 30.1206 21.391 36.0917 25.0739 39.7746C25.0833 39.784 25.0927 39.7934 25.1022 39.8027L17.2122 47.6927Z" fill="#6842F7"/>
<g clip-path="url(#clip0_335_54)">
<path d="M185.999 48.6989C178.617 48.7234 172.689 44.3964 170.951 38.2675C168.794 30.6431 173.132 22.8348 180.786 20.5548C186.997 18.7039 193.591 20.8613 197.374 26.1199C199.642 29.2702 200.468 32.8495 199.753 36.6985C198.681 42.4352 195.23 46.1738 189.709 47.988C188.291 48.4538 186.751 48.5641 185.999 48.7112V48.6989ZM184.939 27.505C181.069 27.6521 178.259 30.8637 178.383 34.5166C178.518 38.5249 181.858 41.3074 185.481 41.099C189.487 40.8784 192.26 37.6668 191.989 33.6953C191.742 30.1528 188.452 27.2599 184.927 27.505H184.939Z" fill="#150D33"/>
<path d="M121.593 20.8489H129.493C129.505 21.094 129.53 21.3024 129.53 21.5231C129.554 25.9727 129.567 30.4223 129.579 34.8842C129.579 37.6422 129.061 40.2776 127.508 42.6311C125.684 45.4014 123.096 47.1053 119.867 47.7672C116.454 48.4659 113.163 48.0982 110.143 46.2595C107.297 44.5311 105.559 41.9692 104.856 38.7577C104.561 37.397 104.437 35.9751 104.425 34.5777C104.363 30.2752 104.388 25.9604 104.376 21.6456C104.376 21.4005 104.376 21.1553 104.376 20.8734H112.387C112.387 21.1553 112.387 21.4005 112.387 21.6456C112.387 26.1565 112.374 30.6674 112.411 35.1906C112.411 36.0364 112.534 36.9067 112.781 37.7157C113.434 39.7873 114.95 40.8047 117.144 40.7557C119.103 40.7189 120.742 39.4686 121.272 37.4951C121.482 36.7228 121.593 35.8893 121.593 35.0803C121.617 30.6062 121.593 26.132 121.593 21.6579C121.593 21.4127 121.593 21.1676 121.593 20.8611V20.8489Z" fill="#150D33"/>
<path d="M100.099 23.0922C98.78 25.1024 97.4859 27.0882 96.1549 29.123C94.146 27.456 91.8784 26.8553 89.3642 27.4437C87.7497 27.8237 86.4557 28.743 85.4821 30.0791C83.4609 32.8372 83.7444 36.772 86.0983 39.2603C88.2057 41.4912 92.5192 42.4719 96.1549 39.5177C97.5722 41.4054 99.0018 43.2931 100.419 45.1809C96.6232 48.846 88.2057 50.513 81.6862 45.5609C75.3392 40.7558 74.2547 31.4398 79.4062 25.2373C84.7549 18.8019 94.2077 18.3974 100.099 23.0922Z" fill="#150D33"/>
<path d="M143.492 47.755H135.531V20.8489C135.752 20.8489 135.95 20.8121 136.147 20.8121C138.18 20.8121 140.214 20.8366 142.247 20.7999C142.876 20.7876 142.999 21.0573 143.048 21.5844C143.122 22.3934 143.246 23.2024 143.369 24.183C145.957 21.3024 149.063 19.7702 152.957 19.6967C152.809 20.7508 152.686 21.7315 152.538 22.7121C152.304 24.2443 152.02 25.7643 151.836 27.3088C151.774 27.8236 151.577 27.8727 151.145 27.8849C150.233 27.9217 149.284 27.9094 148.397 28.1301C145.932 28.7307 144.564 30.4836 143.985 32.8371C143.702 33.9771 143.541 35.1661 143.517 36.3429C143.455 39.8977 143.492 43.4524 143.492 47.0072C143.492 47.2524 143.492 47.4853 143.492 47.7672V47.755Z" fill="#150D33"/>
<path d="M157.395 47.6973V20.9836H165.511V47.6973H157.395Z" fill="#150D33"/>
<ellipse cx="162.25" cy="14.0397" rx="4.21512" ry="4.21518" fill="#FF86B7"/>
</g>
<defs>
<clipPath id="clip0_335_54">
<rect width="123.86" height="38.8866" fill="white" transform="translate(76.1399 9.82446)"/>
</clipPath>
</defs>
</svg>
