<svg width="166" height="48" viewBox="0 0 166 48" fill="none" xmlns="http://www.w3.org/2000/svg">
<rect width="166" height="48" rx="16" fill="#6A65FD"/>
<path d="M33.248 22.08C32.96 21.5253 32.56 21.1093 32.048 20.832C31.536 20.544 30.944 20.4 30.272 20.4C29.536 20.4 28.88 20.5653 28.304 20.896C27.728 21.2267 27.2747 21.696 26.944 22.304C26.624 22.912 26.464 23.616 26.464 24.416C26.464 25.216 26.624 25.9253 26.944 26.544C27.2747 27.152 27.728 27.6213 28.304 27.952C28.88 28.2827 29.536 28.448 30.272 28.448C31.264 28.448 32.0693 28.1707 32.688 27.616C33.3067 27.0613 33.6853 26.3093 33.824 25.36H29.648V23.904H35.776V25.328C35.6587 26.192 35.3493 26.9867 34.848 27.712C34.3573 28.4373 33.712 29.0187 32.912 29.456C32.1227 29.8827 31.2427 30.096 30.272 30.096C29.2267 30.096 28.272 29.856 27.408 29.376C26.544 28.8853 25.856 28.208 25.344 27.344C24.8427 26.48 24.592 25.504 24.592 24.416C24.592 23.328 24.8427 22.352 25.344 21.488C25.856 20.624 26.544 19.952 27.408 19.472C28.2827 18.9813 29.2373 18.736 30.272 18.736C31.456 18.736 32.5067 19.0293 33.424 19.616C34.352 20.192 35.024 21.0133 35.44 22.08H33.248ZM45.655 25.376C45.655 25.7067 45.6337 26.0053 45.591 26.272H38.855C38.9083 26.976 39.1697 27.5413 39.639 27.968C40.1083 28.3947 40.6843 28.608 41.367 28.608C42.3483 28.608 43.0417 28.1973 43.447 27.376H45.415C45.1483 28.1867 44.663 28.8533 43.959 29.376C43.2657 29.888 42.4017 30.144 41.367 30.144C40.5243 30.144 39.767 29.9573 39.095 29.584C38.4337 29.2 37.911 28.6667 37.527 27.984C37.1537 27.2907 36.967 26.4907 36.967 25.584C36.967 24.6773 37.1483 23.8827 37.511 23.2C37.8843 22.5067 38.4017 21.9733 39.063 21.6C39.735 21.2267 40.503 21.04 41.367 21.04C42.199 21.04 42.9403 21.2213 43.591 21.584C44.2417 21.9467 44.7483 22.4587 45.111 23.12C45.4737 23.7707 45.655 24.5227 45.655 25.376ZM43.751 24.8C43.7403 24.128 43.5003 23.5893 43.031 23.184C42.5617 22.7787 41.9803 22.576 41.287 22.576C40.6577 22.576 40.119 22.7787 39.671 23.184C39.223 23.5787 38.9563 24.1173 38.871 24.8H43.751ZM49.578 22.672V27.552C49.578 27.8827 49.6527 28.1227 49.802 28.272C49.962 28.4107 50.2287 28.48 50.602 28.48H51.722V30H50.282C49.4607 30 48.8313 29.808 48.394 29.424C47.9567 29.04 47.738 28.416 47.738 27.552V22.672H46.698V21.184H47.738V18.992H49.578V21.184H51.722V22.672H49.578ZM59.6874 22.672V27.552C59.6874 27.8827 59.762 28.1227 59.9114 28.272C60.0714 28.4107 60.338 28.48 60.7114 28.48H61.8314V30H60.3914C59.57 30 58.9407 29.808 58.5034 29.424C58.066 29.04 57.8474 28.416 57.8474 27.552V22.672H56.8074V21.184H57.8474V18.992H59.6874V21.184H61.8314V22.672H59.6874ZM68.0725 21.04C68.7445 21.04 69.3418 21.184 69.8645 21.472C70.3978 21.76 70.8138 22.1867 71.1125 22.752C71.4218 23.3173 71.5765 24 71.5765 24.8V30H69.7685V25.072C69.7685 24.2827 69.5712 23.68 69.1765 23.264C68.7818 22.8373 68.2432 22.624 67.5605 22.624C66.8778 22.624 66.3338 22.8373 65.9285 23.264C65.5338 23.68 65.3365 24.2827 65.3365 25.072V30H63.5125V18.16H65.3365V22.208C65.6458 21.8347 66.0352 21.5467 66.5045 21.344C66.9845 21.1413 67.5072 21.04 68.0725 21.04ZM81.9831 25.376C81.9831 25.7067 81.9618 26.0053 81.9191 26.272H75.1831C75.2365 26.976 75.4978 27.5413 75.9671 27.968C76.4365 28.3947 77.0125 28.608 77.6951 28.608C78.6765 28.608 79.3698 28.1973 79.7751 27.376H81.7431C81.4765 28.1867 80.9911 28.8533 80.2871 29.376C79.5938 29.888 78.7298 30.144 77.6951 30.144C76.8525 30.144 76.0951 29.9573 75.4231 29.584C74.7618 29.2 74.2391 28.6667 73.8551 27.984C73.4818 27.2907 73.2951 26.4907 73.2951 25.584C73.2951 24.6773 73.4765 23.8827 73.8391 23.2C74.2125 22.5067 74.7298 21.9733 75.3911 21.6C76.0631 21.2267 76.8311 21.04 77.6951 21.04C78.5271 21.04 79.2685 21.2213 79.9191 21.584C80.5698 21.9467 81.0765 22.4587 81.4391 23.12C81.8018 23.7707 81.9831 24.5227 81.9831 25.376ZM80.0791 24.8C80.0685 24.128 79.8285 23.5893 79.3591 23.184C78.8898 22.7787 78.3085 22.576 77.6151 22.576C76.9858 22.576 76.4471 22.7787 75.9991 23.184C75.5511 23.5787 75.2845 24.1173 75.1991 24.8H80.0791ZM94.6384 27.728H89.9824L89.1824 30H87.2784L91.2624 18.864H93.3744L97.3584 30H95.4384L94.6384 27.728ZM94.1264 26.24L92.3184 21.072L90.4944 26.24H94.1264ZM100.915 22.48C101.224 22.0747 101.645 21.7333 102.179 21.456C102.712 21.1787 103.315 21.04 103.987 21.04C104.755 21.04 105.453 21.232 106.083 21.616C106.723 21.9893 107.224 22.5173 107.587 23.2C107.949 23.8827 108.131 24.6667 108.131 25.552C108.131 26.4373 107.949 27.232 107.587 27.936C107.224 28.6293 106.723 29.1733 106.083 29.568C105.453 29.952 104.755 30.144 103.987 30.144C103.315 30.144 102.717 30.0107 102.195 29.744C101.672 29.4667 101.245 29.1253 100.915 28.72V34.192H99.0906V21.184H100.915V22.48ZM106.275 25.552C106.275 24.944 106.147 24.4213 105.891 23.984C105.645 23.536 105.315 23.2 104.899 22.976C104.493 22.7413 104.056 22.624 103.587 22.624C103.128 22.624 102.691 22.7413 102.275 22.976C101.869 23.2107 101.539 23.552 101.283 24C101.037 24.448 100.915 24.976 100.915 25.584C100.915 26.192 101.037 26.7253 101.283 27.184C101.539 27.632 101.869 27.9733 102.275 28.208C102.691 28.4427 103.128 28.56 103.587 28.56C104.056 28.56 104.493 28.4427 104.899 28.208C105.315 27.9627 105.645 27.6107 105.891 27.152C106.147 26.6933 106.275 26.16 106.275 25.552ZM111.758 22.48C112.068 22.0747 112.489 21.7333 113.022 21.456C113.556 21.1787 114.158 21.04 114.83 21.04C115.598 21.04 116.297 21.232 116.926 21.616C117.566 21.9893 118.068 22.5173 118.43 23.2C118.793 23.8827 118.974 24.6667 118.974 25.552C118.974 26.4373 118.793 27.232 118.43 27.936C118.068 28.6293 117.566 29.1733 116.926 29.568C116.297 29.952 115.598 30.144 114.83 30.144C114.158 30.144 113.561 30.0107 113.038 29.744C112.516 29.4667 112.089 29.1253 111.758 28.72V34.192H109.934V21.184H111.758V22.48ZM117.118 25.552C117.118 24.944 116.99 24.4213 116.734 23.984C116.489 23.536 116.158 23.2 115.742 22.976C115.337 22.7413 114.9 22.624 114.43 22.624C113.972 22.624 113.534 22.7413 113.118 22.976C112.713 23.2107 112.382 23.552 112.126 24C111.881 24.448 111.758 24.976 111.758 25.584C111.758 26.192 111.881 26.7253 112.126 27.184C112.382 27.632 112.713 27.9733 113.118 28.208C113.534 28.4427 113.972 28.56 114.43 28.56C114.9 28.56 115.337 28.4427 115.742 28.208C116.158 27.9627 116.489 27.6107 116.734 27.152C116.99 26.6933 117.118 26.16 117.118 25.552Z" fill="white"/>
<path d="M133.833 19.8333H142.167M142.167 19.8333V28.1666M142.167 19.8333L133.833 28.1666" stroke="white" stroke-width="1.5" stroke-linecap="round" stroke-linejoin="round"/>
</svg>
